<mxfile host="app.diagrams.net" agent="Mozilla/5.0 (Windows NT 10.0; Win64; x64) AppleWebKit/537.36 (KHTML, like Gecko) Chrome/136.0.0.0 Safari/537.36" version="27.0.5">
  <diagram name="Page-1" id="ah4-4o1aJsZ9hj4hK-Dv">
    <mxGraphModel dx="1462" dy="1144" grid="1" gridSize="10" guides="1" tooltips="1" connect="1" arrows="1" fold="1" page="1" pageScale="1" pageWidth="827" pageHeight="1169" math="0" shadow="0">
      <root>
        <mxCell id="0" />
        <mxCell id="1" parent="0" />
        <mxCell id="g1hJZHoWsPPVvcOoxAAN-6" value="&lt;font&gt;Administrator&lt;/font&gt;" style="rounded=0;whiteSpace=wrap;html=1;fontColor=light-dark(#000000,#000000);fillColor=light-dark(#FFFFFF,#7EA6E0);strokeColor=light-dark(#000000,#000000);" vertex="1" parent="1">
          <mxGeometry x="650" y="260" width="140" height="60" as="geometry" />
        </mxCell>
        <mxCell id="g1hJZHoWsPPVvcOoxAAN-8" value="&lt;font&gt;Vanjski izvori&lt;br&gt;&lt;/font&gt;" style="rounded=0;whiteSpace=wrap;html=1;fontColor=light-dark(#000000,#000000);fillColor=light-dark(#FFFFFF,#7EA6E0);strokeColor=light-dark(#000000,#000000);" vertex="1" parent="1">
          <mxGeometry x="630" y="740" width="140" height="60" as="geometry" />
        </mxCell>
        <mxCell id="g1hJZHoWsPPVvcOoxAAN-12" value="&lt;font&gt;Investitor&lt;/font&gt;" style="rounded=0;whiteSpace=wrap;html=1;fontColor=light-dark(#000000,#000000);fillColor=light-dark(#FFFFFF,#7EA6E0);strokeColor=light-dark(#000000,#000000);" vertex="1" parent="1">
          <mxGeometry x="20" y="320" width="140" height="60" as="geometry" />
        </mxCell>
        <mxCell id="g1hJZHoWsPPVvcOoxAAN-13" value="&lt;font&gt;Analitičar&lt;/font&gt;" style="rounded=0;whiteSpace=wrap;html=1;fontColor=light-dark(#000000,#000000);fillColor=light-dark(#FFFFFF,#7EA6E0);strokeColor=light-dark(#000000,#000000);" vertex="1" parent="1">
          <mxGeometry x="10" y="810" width="140" height="60" as="geometry" />
        </mxCell>
        <mxCell id="g1hJZHoWsPPVvcOoxAAN-21" value="&lt;font&gt;P1&lt;br&gt;Upravljanje korisnicima&lt;/font&gt;" style="rounded=0;whiteSpace=wrap;html=1;fontColor=light-dark(#000000,#000000);fillColor=light-dark(#FFFFFF,#7EA6E0);strokeColor=light-dark(#000000,#000000);" vertex="1" parent="1">
          <mxGeometry x="340" y="350" width="180" height="60" as="geometry" />
        </mxCell>
        <mxCell id="g1hJZHoWsPPVvcOoxAAN-22" value="&lt;font&gt;P2&lt;br&gt;Praćenje tržišta&lt;/font&gt;" style="rounded=0;whiteSpace=wrap;html=1;fontColor=light-dark(#000000,#000000);fillColor=light-dark(#FFFFFF,#7EA6E0);strokeColor=light-dark(#000000,#000000);" vertex="1" parent="1">
          <mxGeometry x="340" y="460" width="180" height="60" as="geometry" />
        </mxCell>
        <mxCell id="g1hJZHoWsPPVvcOoxAAN-23" value="&lt;font&gt;P3&lt;br&gt;Analiza tržišta&lt;/font&gt;" style="rounded=0;whiteSpace=wrap;html=1;fontColor=light-dark(#000000,#000000);fillColor=light-dark(#FFFFFF,#7EA6E0);strokeColor=light-dark(#000000,#000000);" vertex="1" parent="1">
          <mxGeometry x="340" y="550" width="180" height="60" as="geometry" />
        </mxCell>
        <mxCell id="g1hJZHoWsPPVvcOoxAAN-24" value="&lt;font&gt;P4&lt;br&gt;Upravljanje podacima&lt;/font&gt;" style="rounded=0;whiteSpace=wrap;html=1;fontColor=light-dark(#000000,#000000);fillColor=light-dark(#FFFFFF,#7EA6E0);strokeColor=light-dark(#000000,#000000);" vertex="1" parent="1">
          <mxGeometry x="340" y="660" width="180" height="60" as="geometry" />
        </mxCell>
        <mxCell id="g1hJZHoWsPPVvcOoxAAN-25" value="&lt;font&gt;P5&lt;br&gt;Izvještaji i preporuke&lt;/font&gt;" style="rounded=0;whiteSpace=wrap;html=1;fontColor=light-dark(#000000,#000000);fillColor=light-dark(#FFFFFF,#7EA6E0);strokeColor=light-dark(#000000,#000000);" vertex="1" parent="1">
          <mxGeometry x="340" y="760" width="180" height="60" as="geometry" />
        </mxCell>
        <mxCell id="g1hJZHoWsPPVvcOoxAAN-27" value="D1&lt;br&gt;Baza korisnika" style="rounded=0;whiteSpace=wrap;html=1;fontColor=light-dark(#000000,#000000);fillColor=light-dark(#FFFFFF,#7EA6E0);strokeColor=light-dark(#000000,#000000);" vertex="1" parent="1">
          <mxGeometry x="110" y="410" width="180" height="60" as="geometry" />
        </mxCell>
        <mxCell id="g1hJZHoWsPPVvcOoxAAN-28" value="D2&lt;br&gt;Baza tržišnih podataka" style="rounded=0;whiteSpace=wrap;html=1;fontColor=light-dark(#000000,#000000);fillColor=light-dark(#FFFFFF,#7EA6E0);strokeColor=light-dark(#000000,#000000);" vertex="1" parent="1">
          <mxGeometry x="120" y="550" width="180" height="60" as="geometry" />
        </mxCell>
        <mxCell id="g1hJZHoWsPPVvcOoxAAN-29" value="D3&lt;br&gt;Baza izvještaja" style="rounded=0;whiteSpace=wrap;html=1;fontColor=light-dark(#000000,#000000);fillColor=light-dark(#FFFFFF,#7EA6E0);strokeColor=light-dark(#000000,#000000);" vertex="1" parent="1">
          <mxGeometry x="110" y="670" width="180" height="60" as="geometry" />
        </mxCell>
        <mxCell id="g1hJZHoWsPPVvcOoxAAN-33" value="&lt;div&gt;&lt;font style=&quot;color: light-dark(rgb(0, 0, 0), rgb(0, 0, 0)); background-color: light-dark(rgb(255, 255, 255), rgb(255, 255, 255));&quot;&gt;potvrda&lt;/font&gt;&lt;/div&gt;" style="endArrow=classic;html=1;rounded=0;entryX=1;entryY=0.25;entryDx=0;entryDy=0;exitX=0;exitY=0.25;exitDx=0;exitDy=0;strokeColor=light-dark(#000000,#000000);" edge="1" parent="1" source="g1hJZHoWsPPVvcOoxAAN-6">
          <mxGeometry width="50" height="50" relative="1" as="geometry">
            <mxPoint x="620" y="275" as="sourcePoint" />
            <mxPoint x="490" y="350" as="targetPoint" />
          </mxGeometry>
        </mxCell>
        <mxCell id="g1hJZHoWsPPVvcOoxAAN-34" value="&lt;font style=&quot;color: light-dark(rgb(0, 0, 0), rgb(0, 0, 0)); background-color: light-dark(rgb(255, 255, 255), rgb(255, 255, 255));&quot;&gt;izmjena korisnika&lt;/font&gt;" style="endArrow=classic;html=1;rounded=0;exitX=1.018;exitY=0.571;exitDx=0;exitDy=0;strokeColor=light-dark(#000000,#000000);entryX=0;entryY=0.833;entryDx=0;entryDy=0;entryPerimeter=0;exitPerimeter=0;" edge="1" parent="1" source="g1hJZHoWsPPVvcOoxAAN-21" target="g1hJZHoWsPPVvcOoxAAN-6">
          <mxGeometry width="50" height="50" relative="1" as="geometry">
            <mxPoint x="630" y="360" as="sourcePoint" />
            <mxPoint x="570" y="500" as="targetPoint" />
          </mxGeometry>
        </mxCell>
        <mxCell id="g1hJZHoWsPPVvcOoxAAN-35" value="&lt;div&gt;&lt;font style=&quot;color: light-dark(rgb(0, 0, 0), rgb(0, 0, 0)); background-color: light-dark(rgb(255, 255, 255), rgb(255, 255, 255));&quot;&gt;prijava korisnika&lt;/font&gt;&lt;/div&gt;" style="endArrow=classic;html=1;rounded=0;entryX=0;entryY=0.5;entryDx=0;entryDy=0;exitX=0;exitY=0.25;exitDx=0;exitDy=0;strokeColor=light-dark(#000000,#000000);" edge="1" parent="1" target="g1hJZHoWsPPVvcOoxAAN-21">
          <mxGeometry width="50" height="50" relative="1" as="geometry">
            <mxPoint x="160" y="350" as="sourcePoint" />
            <mxPoint y="425" as="targetPoint" />
          </mxGeometry>
        </mxCell>
        <mxCell id="g1hJZHoWsPPVvcOoxAAN-36" value="&lt;div&gt;&lt;font style=&quot;color: light-dark(rgb(0, 0, 0), rgb(0, 0, 0)); background-color: light-dark(rgb(255, 255, 255), rgb(255, 255, 255));&quot;&gt;odgovor/autentikacija&lt;/font&gt;&lt;/div&gt;" style="endArrow=classic;html=1;rounded=0;entryX=0.5;entryY=0;entryDx=0;entryDy=0;exitX=0;exitY=0.75;exitDx=0;exitDy=0;strokeColor=light-dark(#000000,#000000);" edge="1" parent="1" target="g1hJZHoWsPPVvcOoxAAN-27">
          <mxGeometry width="50" height="50" relative="1" as="geometry">
            <mxPoint x="335" y="380" as="sourcePoint" />
            <mxPoint x="145" y="445" as="targetPoint" />
          </mxGeometry>
        </mxCell>
        <mxCell id="g1hJZHoWsPPVvcOoxAAN-37" value="" style="endArrow=classic;html=1;rounded=0;exitX=0.25;exitY=1;exitDx=0;exitDy=0;strokeColor=light-dark(#000000,#000000);entryX=0.015;entryY=0.443;entryDx=0;entryDy=0;entryPerimeter=0;" edge="1" parent="1" source="g1hJZHoWsPPVvcOoxAAN-27" target="g1hJZHoWsPPVvcOoxAAN-22">
          <mxGeometry width="50" height="50" relative="1" as="geometry">
            <mxPoint x="680" y="305" as="sourcePoint" />
            <mxPoint x="720" y="400" as="targetPoint" />
          </mxGeometry>
        </mxCell>
        <mxCell id="g1hJZHoWsPPVvcOoxAAN-38" value="" style="endArrow=classic;html=1;rounded=0;exitX=0;exitY=0.167;exitDx=0;exitDy=0;strokeColor=light-dark(#000000,#000000);entryX=1;entryY=0;entryDx=0;entryDy=0;exitPerimeter=0;" edge="1" parent="1" source="g1hJZHoWsPPVvcOoxAAN-23" target="g1hJZHoWsPPVvcOoxAAN-28">
          <mxGeometry width="50" height="50" relative="1" as="geometry">
            <mxPoint x="165" y="480" as="sourcePoint" />
            <mxPoint x="353" y="497" as="targetPoint" />
          </mxGeometry>
        </mxCell>
        <mxCell id="g1hJZHoWsPPVvcOoxAAN-39" value="" style="endArrow=classic;html=1;rounded=0;exitX=1;exitY=1;exitDx=0;exitDy=0;strokeColor=light-dark(#000000,#000000);entryX=0.009;entryY=-0.052;entryDx=0;entryDy=0;entryPerimeter=0;" edge="1" parent="1" source="g1hJZHoWsPPVvcOoxAAN-28" target="g1hJZHoWsPPVvcOoxAAN-24">
          <mxGeometry width="50" height="50" relative="1" as="geometry">
            <mxPoint x="175" y="490" as="sourcePoint" />
            <mxPoint x="363" y="507" as="targetPoint" />
          </mxGeometry>
        </mxCell>
        <mxCell id="g1hJZHoWsPPVvcOoxAAN-40" value="&lt;div&gt;&lt;font style=&quot;color: light-dark(rgb(0, 0, 0), rgb(0, 0, 0)); background-color: light-dark(rgb(255, 255, 255), rgb(255, 255, 255));&quot;&gt;dohvat podataka&lt;/font&gt;&lt;/div&gt;" style="endArrow=classic;html=1;rounded=0;entryX=0;entryY=0.25;entryDx=0;entryDy=0;exitX=1;exitY=0;exitDx=0;exitDy=0;strokeColor=light-dark(#000000,#000000);" edge="1" parent="1" source="g1hJZHoWsPPVvcOoxAAN-25" target="g1hJZHoWsPPVvcOoxAAN-8">
          <mxGeometry width="50" height="50" relative="1" as="geometry">
            <mxPoint x="520" y="720" as="sourcePoint" />
            <mxPoint x="360" y="795" as="targetPoint" />
          </mxGeometry>
        </mxCell>
        <mxCell id="g1hJZHoWsPPVvcOoxAAN-41" value="&lt;div&gt;&lt;font style=&quot;color: light-dark(rgb(0, 0, 0), rgb(0, 0, 0)); background-color: light-dark(rgb(255, 255, 255), rgb(255, 255, 255));&quot;&gt;API odgovor&lt;/font&gt;&lt;/div&gt;" style="endArrow=classic;html=1;rounded=0;entryX=1.021;entryY=0.729;entryDx=0;entryDy=0;exitX=0;exitY=0.75;exitDx=0;exitDy=0;strokeColor=light-dark(#000000,#000000);entryPerimeter=0;" edge="1" parent="1" source="g1hJZHoWsPPVvcOoxAAN-8" target="g1hJZHoWsPPVvcOoxAAN-25">
          <mxGeometry width="50" height="50" relative="1" as="geometry">
            <mxPoint x="530" y="730" as="sourcePoint" />
            <mxPoint x="640" y="765" as="targetPoint" />
          </mxGeometry>
        </mxCell>
        <mxCell id="g1hJZHoWsPPVvcOoxAAN-42" value="" style="endArrow=classic;html=1;rounded=0;exitX=0;exitY=0.5;exitDx=0;exitDy=0;strokeColor=light-dark(#000000,#000000);entryX=1;entryY=0;entryDx=0;entryDy=0;" edge="1" parent="1" source="g1hJZHoWsPPVvcOoxAAN-24">
          <mxGeometry width="50" height="50" relative="1" as="geometry">
            <mxPoint x="330" y="677.5" as="sourcePoint" />
            <mxPoint x="290" y="702.5" as="targetPoint" />
          </mxGeometry>
        </mxCell>
        <mxCell id="g1hJZHoWsPPVvcOoxAAN-43" value="" style="endArrow=classic;html=1;rounded=0;exitX=1;exitY=0.75;exitDx=0;exitDy=0;strokeColor=light-dark(#000000,#000000);entryX=0;entryY=0.167;entryDx=0;entryDy=0;entryPerimeter=0;" edge="1" parent="1" source="g1hJZHoWsPPVvcOoxAAN-29" target="g1hJZHoWsPPVvcOoxAAN-25">
          <mxGeometry width="50" height="50" relative="1" as="geometry">
            <mxPoint x="360" y="580" as="sourcePoint" />
            <mxPoint x="320" y="605" as="targetPoint" />
          </mxGeometry>
        </mxCell>
        <mxCell id="g1hJZHoWsPPVvcOoxAAN-44" value="&lt;div&gt;&lt;font style=&quot;color: light-dark(rgb(0, 0, 0), rgb(0, 0, 0)); background-color: light-dark(rgb(255, 255, 255), rgb(255, 255, 255));&quot;&gt;podatak izvještaja&lt;/font&gt;&lt;/div&gt;" style="endArrow=classic;html=1;rounded=0;entryX=1;entryY=0.5;entryDx=0;entryDy=0;exitX=0;exitY=0.75;exitDx=0;exitDy=0;strokeColor=light-dark(#000000,#000000);" edge="1" parent="1" source="g1hJZHoWsPPVvcOoxAAN-25" target="g1hJZHoWsPPVvcOoxAAN-13">
          <mxGeometry width="50" height="50" relative="1" as="geometry">
            <mxPoint x="640" y="795" as="sourcePoint" />
            <mxPoint x="534" y="814" as="targetPoint" />
          </mxGeometry>
        </mxCell>
        <mxCell id="g1hJZHoWsPPVvcOoxAAN-45" value="&lt;div&gt;&lt;font style=&quot;color: light-dark(rgb(0, 0, 0), rgb(0, 0, 0)); background-color: light-dark(rgb(255, 255, 255), rgb(255, 255, 255));&quot;&gt;zahtjev izvještaja&lt;/font&gt;&lt;/div&gt;" style="endArrow=classic;html=1;rounded=0;entryX=0;entryY=0.5;entryDx=0;entryDy=0;exitX=1;exitY=0;exitDx=0;exitDy=0;strokeColor=light-dark(#000000,#000000);" edge="1" parent="1" source="g1hJZHoWsPPVvcOoxAAN-13" target="g1hJZHoWsPPVvcOoxAAN-25">
          <mxGeometry width="50" height="50" relative="1" as="geometry">
            <mxPoint x="276" y="850" as="sourcePoint" />
            <mxPoint x="170" y="869" as="targetPoint" />
          </mxGeometry>
        </mxCell>
      </root>
    </mxGraphModel>
  </diagram>
</mxfile>
